<?xml version="1.0" standalone="no"?>
<!DOCTYPE svg PUBLIC "-//W3C//DTD SVG 20010904//EN"
 "http://www.w3.org/TR/2001/REC-SVG-20010904/DTD/svg10.dtd">
<svg version="1.0" xmlns="http://www.w3.org/2000/svg"
 width="512.000000pt" height="512.000000pt" viewBox="0 0 512.000000 512.000000"
 preserveAspectRatio="xMidYMid meet">
<metadata>
Created by potrace 1.14, written by Peter Selinger 2001-2017
</metadata>
<g transform="translate(0.000000,512.000000) scale(0.100000,-0.100000)"
fill="#000000" stroke="none">
<path d="M1996 3208 c-13 -18 -16 -55 -16 -194 0 -94 -3 -174 -7 -177 -3 -4
-11 3 -17 15 -6 12 -24 26 -41 31 -16 5 -40 19 -53 31 -21 18 -36 21 -127 21
-90 0 -107 -3 -132 -21 -16 -12 -38 -24 -51 -28 -30 -10 -127 -106 -137 -135
-4 -14 -16 -32 -27 -40 -16 -13 -21 -37 -29 -141 -15 -191 2 -381 35 -393 8
-3 17 -20 21 -37 4 -17 18 -38 31 -46 13 -9 24 -22 24 -30 0 -7 10 -19 23 -25
12 -7 32 -23 44 -36 12 -12 34 -23 48 -23 14 0 42 -9 62 -20 45 -24 125 -27
143 -5 7 8 34 18 61 21 30 4 55 14 62 24 7 9 22 22 35 29 18 10 23 9 27 -4 3
-8 7 -22 10 -30 4 -13 26 -15 142 -13 l138 3 3 599 c2 524 0 602 -13 623 -15
22 -21 23 -130 23 -106 0 -115 -1 -129 -22z m-127 -560 c46 -10 52 -15 61 -46
5 -19 17 -43 27 -54 13 -14 19 -41 21 -94 4 -68 2 -78 -22 -112 -14 -21 -26
-44 -26 -51 0 -7 -14 -26 -31 -42 -27 -25 -39 -29 -91 -29 -75 0 -94 10 -102
56 -5 24 -14 38 -27 41 -17 5 -19 15 -19 124 0 74 4 119 10 119 6 0 18 17 27
38 10 20 18 39 20 41 3 4 63 19 85 20 9 1 39 -4 67 -11z"/>
<path d="M2731 2931 c-31 -4 -58 -14 -65 -23 -7 -9 -25 -20 -42 -24 -16 -4
-44 -20 -62 -36 -18 -15 -37 -28 -43 -28 -5 0 -17 -17 -26 -37 -8 -21 -24 -44
-34 -51 -10 -7 -19 -21 -19 -31 0 -10 -9 -28 -20 -41 -30 -34 -32 -49 -28
-242 3 -153 5 -179 21 -196 10 -11 22 -33 26 -48 4 -16 17 -33 29 -39 12 -5
22 -16 22 -23 0 -16 65 -82 81 -82 6 0 24 -11 41 -25 16 -14 42 -25 56 -25 15
0 47 -10 72 -21 58 -27 174 -32 211 -8 13 9 45 20 69 23 56 9 100 25 100 38 0
5 13 14 29 19 15 6 33 21 39 34 7 14 18 25 26 25 8 0 20 17 27 38 6 20 20 45
30 55 22 20 25 60 7 75 -7 5 -35 13 -63 17 -27 4 -63 14 -79 22 -51 26 -101 8
-166 -60 -12 -12 -39 -20 -87 -24 -89 -7 -137 7 -153 47 -6 16 -20 36 -31 46
-10 9 -16 21 -13 25 3 5 132 9 288 9 348 0 322 -13 319 163 -2 108 -5 124 -27
156 -13 20 -26 47 -30 61 -10 43 -123 148 -176 165 -13 4 -36 16 -50 26 -29
21 -186 33 -279 20z m179 -256 c0 -8 4 -15 10 -15 11 0 80 -62 80 -72 0 -5
-67 -8 -150 -8 l-149 0 20 35 c12 19 27 35 35 35 7 0 18 9 24 20 9 17 21 20
70 20 47 0 60 -3 60 -15z"/>
<path d="M3319 2909 c-15 -30 -6 -105 18 -138 11 -14 23 -51 27 -81 4 -30 15
-64 25 -75 10 -11 21 -40 24 -63 3 -24 15 -54 26 -66 12 -12 21 -33 21 -47 0
-39 19 -97 34 -102 8 -3 16 -30 20 -67 5 -42 13 -66 26 -78 13 -11 22 -35 26
-75 4 -33 14 -68 23 -77 9 -9 21 -25 27 -36 10 -17 26 -19 164 -22 97 -2 157
1 165 8 7 6 16 26 19 45 4 19 14 39 23 43 10 6 19 31 24 67 5 36 15 65 28 79
14 15 21 36 21 63 0 26 8 50 22 68 13 16 25 51 29 83 5 33 15 61 27 72 12 12
22 39 26 73 5 34 14 61 26 72 11 10 21 38 25 68 4 29 16 63 26 76 22 27 26
100 7 119 -15 15 -261 17 -288 2 -21 -11 -40 -67 -40 -117 0 -19 -7 -36 -16
-41 -17 -9 -33 -68 -34 -120 0 -18 -10 -46 -21 -62 -15 -20 -23 -48 -26 -97
-5 -63 -8 -71 -33 -85 l-28 -16 -7 75 c-5 53 -12 80 -26 94 -12 12 -21 40 -25
85 -5 45 -13 73 -26 86 -12 12 -21 40 -25 80 -5 48 -12 68 -36 94 l-29 34
-129 0 c-121 0 -129 -1 -140 -21z"/>
<path d="M1030 2279 c-8 -5 -24 -9 -36 -9 -12 0 -36 -15 -55 -32 -33 -32 -34
-35 -34 -115 0 -71 3 -84 23 -106 23 -24 114 -77 134 -77 23 0 119 53 129 72
6 11 19 28 30 39 29 29 26 109 -4 146 -13 15 -26 36 -30 45 -9 25 -132 54
-157 37z"/>
</g>
</svg>
